<svg width="2722" height="2373" viewBox="0 0 2722 2373" fill="none" xmlns="http://www.w3.org/2000/svg">
<g opacity="0.25">
<path fill-rule="evenodd" clip-rule="evenodd" d="M655.556 170.851C724.706 186.577 742.592 277.608 798.25 321.554C850.209 362.581 937.724 357.381 966.997 416.762C996.553 476.718 965.533 548.54 940.751 610.621C917.36 669.218 883.583 724.648 830.488 758.729C779.191 791.656 715.974 785.613 655.556 793.686C583.343 803.335 504.175 850.079 443.006 810.505C382.006 771.04 378.989 682.44 371.848 610.138C365.918 550.091 392.545 495.7 406.111 436.906C421.44 370.472 409.742 293.545 456.375 243.806C505.949 190.931 584.879 154.778 655.556 170.851Z" stroke="#8E8E8E"/>
<path fill-rule="evenodd" clip-rule="evenodd" d="M879.067 478.673C867.091 531.326 797.765 544.946 764.296 587.326C733.051 626.89 737.012 693.527 691.789 715.817C646.129 738.322 591.431 714.703 544.152 695.832C499.527 678.022 457.313 652.302 431.358 611.873C406.282 572.814 410.884 524.678 404.736 478.673C397.388 423.687 361.789 363.405 391.927 316.829C421.983 270.38 489.457 268.083 544.52 262.646C590.25 258.131 631.672 278.405 676.448 288.735C727.042 300.407 785.628 291.5 823.507 327.008C863.775 364.756 891.308 424.857 879.067 478.673Z" stroke="#8E8E8E"/>
<path fill-rule="evenodd" clip-rule="evenodd" d="M674.345 1166.77C771.74 1162.6 891.193 1124.83 958.173 1195.68C1026.89 1268.38 960.904 1389.22 977.845 1487.82C991.143 1565.22 1064.41 1630.92 1046.07 1707.28C1027.44 1784.88 945.527 1824.44 884.641 1876C817.871 1932.55 760.492 2006.84 674.345 2022.1C580.459 2038.72 483.014 2011.71 401.97 1961.47C316.671 1908.59 221.003 1836.39 213.337 1736.3C205.694 1636.51 330.363 1579.78 365.562 1486.1C398.03 1399.69 343.457 1285.58 407.618 1219.23C472.195 1152.45 581.545 1170.74 674.345 1166.77Z" stroke="#8E8E8E"/>
<path fill-rule="evenodd" clip-rule="evenodd" d="M1105.62 2025.23C1022.15 2116.16 949.014 2256.92 825.611 2253.46C699.004 2249.9 649.893 2082.63 546.447 2009.52C465.246 1952.13 340.824 1958.9 288.872 1874.11C236.081 1787.96 274.001 1679.2 282.347 1578.52C291.5 1468.12 276.355 1350.23 339.826 1259.44C408.999 1160.5 520.426 1097.44 637.968 1069.86C761.683 1040.84 911.978 1019.82 1008.45 1102.57C1104.64 1185.07 1043.81 1347.48 1096.17 1462.87C1144.47 1569.3 1295.49 1622.6 1297.45 1739.46C1299.43 1857.06 1185.15 1938.59 1105.62 2025.23Z" stroke="#8E8E8E"/>
<path fill-rule="evenodd" clip-rule="evenodd" d="M1882.31 3.32245C2040.12 26.2571 2093.6 227.352 2214.74 331.133C2321.4 422.505 2481.24 448.795 2547.14 572.865C2618.23 706.694 2629.66 872.801 2578.18 1015.34C2527.49 1155.73 2384.39 1228.27 2274.16 1328.83C2146.23 1445.52 2054.9 1636.96 1882.31 1650.13C1709.21 1663.34 1557.8 1523.78 1444.49 1392.14C1346.85 1278.69 1357.47 1116.91 1303.24 977.358C1244.08 825.111 1077.37 698.299 1112.92 538.867C1148.47 379.469 1337.48 316.364 1471.46 223.111C1602.14 132.146 1724.78 -19.5717 1882.31 3.32245Z" stroke="#8E8E8E"/>
<path fill-rule="evenodd" clip-rule="evenodd" d="M2012.43 300.554C2141.34 265.301 2285.26 152.652 2396.51 226.711C2506.54 299.955 2430.85 480.485 2471.63 606.232C2512.38 731.877 2656.86 827.289 2633.45 957.289C2609.92 1088.02 2478.14 1173.97 2358.9 1232.43C2252.21 1284.73 2131.24 1262.2 2012.43 1261.73C1894.21 1261.27 1769.92 1289.51 1667.92 1229.74C1561.29 1167.25 1505.03 1049.84 1456.71 936.067C1404.05 812.1 1313.24 667.144 1379.02 549.617C1446.54 428.982 1627.01 452.55 1755.65 401.967C1843.44 367.447 1921.43 325.438 2012.43 300.554Z" stroke="#8E8E8E"/>
</g>
<g opacity="0.1" filter="url(#filter0_f_942_361)">
<ellipse cx="2162" cy="1079.7" rx="360" ry="190.703" fill="#68F3F6"/>
</g>
<g opacity="0.2" filter="url(#filter1_f_942_361)">
<circle cx="1440" cy="485" r="200" fill="#DD9933"/>
</g>
<g opacity="0.1" filter="url(#filter2_f_942_361)">
<circle cx="455.5" cy="562.5" r="242.5" fill="#191919"/>
</g>
<g opacity="0.1" filter="url(#filter3_f_942_361)">
<circle cx="1443.5" cy="1464.5" r="149.5" fill="#191919"/>
</g>
<path opacity="0.05" d="M849.979 1721.04L768.298 1777.07L759.587 1764.37L779.318 1736.82L669.834 1577.22L619.037 1612.06L626.539 1643.42L608.644 1655.69L576.571 1608.93L764.176 1480.25L796.249 1527L778.354 1539.28L751.803 1520.99L698.985 1557.22L808.469 1716.83L841.267 1708.34L849.979 1721.04ZM1069.73 1570.3L929.172 1666.71L914.323 1645.07C920.215 1630.56 925.916 1613.91 931.428 1595.13C937 1576.03 941.14 1558.76 943.848 1543.32C946.556 1527.88 947.571 1511.63 946.892 1494.55C946.081 1477.28 941.847 1463.06 934.192 1451.9C926.537 1440.74 916.479 1433.92 904.02 1431.43C891.561 1428.94 878.981 1432.05 866.282 1440.76C858.585 1446.04 852.679 1452.08 848.562 1458.86C844.637 1465.52 842.54 1470.91 842.272 1475.06L841.868 1481.28L860.646 1521.03L838.711 1536.07L808.419 1491.92C807.918 1488.3 808.206 1483.15 809.283 1476.47C810.552 1469.66 812.379 1463.45 814.764 1457.85C817.21 1451.93 821.459 1445.34 827.511 1438.07C833.624 1430.49 841.01 1423.72 849.668 1417.78C871.796 1402.6 893.397 1396.56 914.472 1399.64C935.416 1402.54 952.553 1413.7 965.883 1433.14C972.879 1443.33 977.354 1456.25 979.308 1471.89C981.323 1487.2 981.361 1502.31 979.423 1517.22C977.484 1532.13 974.542 1547.03 970.597 1561.9C963.575 1588.79 956.681 1608.23 949.914 1620.23L1024.09 1569.35L1011.64 1530.78L1032.71 1516.32L1069.73 1570.3ZM1227.68 1461.95L1106.45 1545.11L1097.54 1532.12L1136.7 1490.83L1032.96 1339.59L1011.11 1397.45L985.72 1386.42L1014.59 1308.47L1041.72 1289.86L1165.85 1470.83L1218.77 1448.97L1227.68 1461.95Z" fill="#191919"/>
<defs>
<filter id="filter0_f_942_361" x="1602" y="689" width="1120" height="781.406" filterUnits="userSpaceOnUse" color-interpolation-filters="sRGB">
<feFlood flood-opacity="0" result="BackgroundImageFix"/>
<feBlend mode="normal" in="SourceGraphic" in2="BackgroundImageFix" result="shape"/>
<feGaussianBlur stdDeviation="100" result="effect1_foregroundBlur_942_361"/>
</filter>
<filter id="filter1_f_942_361" x="1040" y="85" width="800" height="800" filterUnits="userSpaceOnUse" color-interpolation-filters="sRGB">
<feFlood flood-opacity="0" result="BackgroundImageFix"/>
<feBlend mode="normal" in="SourceGraphic" in2="BackgroundImageFix" result="shape"/>
<feGaussianBlur stdDeviation="100" result="effect1_foregroundBlur_942_361"/>
</filter>
<filter id="filter2_f_942_361" x="13" y="120" width="885" height="885" filterUnits="userSpaceOnUse" color-interpolation-filters="sRGB">
<feFlood flood-opacity="0" result="BackgroundImageFix"/>
<feBlend mode="normal" in="SourceGraphic" in2="BackgroundImageFix" result="shape"/>
<feGaussianBlur stdDeviation="100" result="effect1_foregroundBlur_942_361"/>
</filter>
<filter id="filter3_f_942_361" x="1094" y="1115" width="699" height="699" filterUnits="userSpaceOnUse" color-interpolation-filters="sRGB">
<feFlood flood-opacity="0" result="BackgroundImageFix"/>
<feBlend mode="normal" in="SourceGraphic" in2="BackgroundImageFix" result="shape"/>
<feGaussianBlur stdDeviation="100" result="effect1_foregroundBlur_942_361"/>
</filter>
</defs>
</svg>
