<svg width="33" height="33" viewBox="0 0 33 33" fill="none" xmlns="http://www.w3.org/2000/svg">
<rect width="33" height="33" rx="13" fill="#D9D9D9"/>
<path fill-rule="evenodd" clip-rule="evenodd" d="M16.5 2.75C24.0939 2.75 30.25 8.90608 30.25 16.5C30.25 24.0939 24.0939 30.25 16.5 30.25C8.90608 30.25 2.75 24.0939 2.75 16.5C2.75 8.90608 8.90608 2.75 16.5 2.75ZM21.5792 11.4208C22.1403 11.9818 22.1403 12.8914 21.5792 13.4525L18.5327 16.499L21.5792 19.5475C22.1403 20.1086 22.1403 21.0182 21.5792 21.5792C21.0182 22.1403 20.1086 22.1403 19.5475 21.5792L16.501 18.5307L13.4525 21.5792C12.8914 22.1403 11.9818 22.1403 11.4208 21.5792C10.8597 21.0182 10.8597 20.1086 11.4208 19.5475L14.4693 16.499L11.4208 13.4525C10.8597 12.8914 10.8597 11.9818 11.4208 11.4208C11.9818 10.8597 12.8914 10.8597 13.4525 11.4208L16.501 14.4673L19.5475 11.4208C20.1086 10.8597 21.0182 10.8597 21.5792 11.4208Z" fill="white"/>
</svg>
