<svg width="56" height="56" viewBox="0 0 56 56" fill="none" xmlns="http://www.w3.org/2000/svg">
<rect x="11" y="10" width="35" height="35" rx="17.5" fill="url(#paint0_linear_2001_92)"/>
<path d="M15.4342 27.1579C15.4346 26.8156 15.5666 26.4876 15.8013 26.2459C16.036 26.0041 16.3541 25.8685 16.6856 25.8689L33.6731 25.8873L32.0499 24.221C31.8148 23.9778 31.6829 23.6481 31.6833 23.3045C31.6836 22.9608 31.8162 22.6315 32.0519 22.3887C32.2875 22.146 32.6069 22.0099 32.9398 22.0102C33.2726 22.0106 33.5917 22.1474 33.8269 22.3907L37.5727 26.2657C37.7459 26.4473 37.8632 26.6779 37.9096 26.9282C37.9561 27.1786 37.9296 27.4375 37.8337 27.6724C37.7396 27.9079 37.5802 28.1095 37.3754 28.2516C37.1705 28.3938 36.9296 28.4702 36.6828 28.4712L16.6828 28.4495C16.3513 28.4492 16.0335 28.3129 15.7993 28.0707C15.5652 27.8284 15.4338 27.5001 15.4342 27.1579Z" fill="white"/>
<path d="M31.6768 31.0426C31.676 30.8728 31.7077 30.7045 31.7701 30.5474C31.8325 30.3902 31.9243 30.2473 32.0403 30.1269L35.7945 26.26C36.0301 26.0173 36.3495 25.8811 36.6824 25.8815C36.8472 25.8816 37.0104 25.9153 37.1626 25.9806C37.3148 26.0459 37.4531 26.1415 37.5695 26.2619C37.6859 26.3823 37.7782 26.5252 37.8411 26.6825C37.904 26.8398 37.9363 27.0083 37.9361 27.1784C37.9357 27.522 37.8031 27.8514 37.5675 28.0941L33.8133 31.9611C33.697 32.0819 33.5586 32.1777 33.4062 32.2431C33.2538 32.3084 33.0904 32.3419 32.9254 32.3418C32.7604 32.3416 32.597 32.3077 32.4448 32.242C32.2925 32.1763 32.1544 32.0802 32.0383 31.9591C31.9226 31.8384 31.8311 31.6954 31.7691 31.5381C31.707 31.3808 31.6757 31.2124 31.6768 31.0426Z" fill="white"/>
<defs>
<linearGradient id="paint0_linear_2001_92" x1="28.5" y1="10" x2="0.607092" y2="31.5734" gradientUnits="userSpaceOnUse">
<stop stop-color="#DD9933"/>
<stop offset="1" stop-color="#191919"/>
</linearGradient>
</defs>
</svg>
