<svg width="31" height="31" viewBox="0 0 31 31" fill="none" xmlns="http://www.w3.org/2000/svg">
<rect x="1" y="1" width="29" height="29" rx="9" stroke="#DD9933"/>
<path fill-rule="evenodd" clip-rule="evenodd" d="M5.83594 10.4609C5.83594 9.90865 6.28365 9.46094 6.83594 9.46094H24.1693C24.7216 9.46094 25.1693 9.90865 25.1693 10.4609V10.8776C25.1693 11.4299 24.7216 11.8776 24.1693 11.8776H6.83594C6.28365 11.8776 5.83594 11.4299 5.83594 10.8776V10.4609ZM5.83594 15.2943C5.83594 14.742 6.28365 14.2943 6.83594 14.2943H24.1693C24.7216 14.2943 25.1693 14.742 25.1693 15.2943V15.7109C25.1693 16.2632 24.7216 16.7109 24.1693 16.7109H6.83594C6.28365 16.7109 5.83594 16.2632 5.83594 15.7109V15.2943ZM6.83594 19.1276C6.28365 19.1276 5.83594 19.5753 5.83594 20.1276V20.5443C5.83594 21.0966 6.28365 21.5443 6.83594 21.5443H24.1693C24.7216 21.5443 25.1693 21.0966 25.1693 20.5443V20.1276C25.1693 19.5753 24.7216 19.1276 24.1693 19.1276H6.83594Z" fill="#DD9933"/>
</svg>
